<svg width="376" height="103" viewBox="0 0 376 103" fill="none" xmlns="http://www.w3.org/2000/svg">
    <path fill-rule="evenodd" clip-rule="evenodd" d="M41.6569 0.466139H50.7368V73.9281H41.644L41.6569 0.466139ZM78.0316 30.4109L80.6101 30.8147L82.8855 31.9528L84.8204 33.7016L86.4011 35.9086L87.6215 38.4451L88.4899 41.1826L89.0116 44.0151L89.1921 46.8297L89.047 49.6127L88.6036 52.3699L87.8347 55.0569L86.7001 57.5371L85.1766 59.6946L83.2662 61.382L80.9833 62.4528L78.3592 62.8239L75.7078 62.433L73.3779 61.3157L71.4069 59.6045L69.8194 57.447L68.5969 55.0035L67.736 52.3828L67.2218 49.7156L67.0516 47.086L67.2198 44.4446L67.7197 41.6972L68.5451 38.9617L69.722 36.3559L71.251 34.0262L73.1613 32.129L75.4347 30.8622L78.0316 30.4109ZM58.4573 47.2998L58.9054 53.2428L60.1708 58.6297L62.1445 63.4316L64.723 67.5566L67.7871 70.9274L71.2196 73.4422L74.8912 75.0099L78.6779 75.5433L82.4081 74.9841L85.9489 73.3601L89.2125 70.7641L92.1029 67.2884L94.5145 63.0436L96.3575 58.118L97.5323 52.6203L97.9484 46.6278L97.5017 40.6462L96.2438 35.1356L94.2769 30.1783L91.7093 25.8752L88.6486 22.345L85.2181 19.6976L81.5356 18.0399L77.7237 17.4629L73.965 18.0656L70.4119 19.7807L67.1462 22.5133L64.2653 26.1434L61.8571 30.5643L60.0285 35.6453L58.8639 41.2667L58.4573 47.2998ZM123.652 30.4109L126.231 30.8147L128.506 31.9528L130.443 33.7016L132.024 35.9086L133.245 38.4451L134.111 41.1826L134.634 44.0151L134.815 46.8297L134.668 49.6127L134.227 52.3699L133.456 55.0569L132.321 57.5371L130.798 59.6965L128.888 61.382L126.603 62.4528L123.981 62.8239L121.329 62.433L118.999 61.3157L117.027 59.6045L115.439 57.447L114.216 54.9995L113.357 52.3818L112.845 49.7146L112.674 47.085L112.841 44.4436L113.342 41.6962L114.169 38.9608L115.343 36.3549L116.874 34.0252L118.785 32.128L121.058 30.8612L123.652 30.4109ZM104.077 47.2998L104.527 53.2428L105.792 58.6297L107.766 63.4316L110.344 67.5566L113.406 70.9274L116.84 73.4422L120.511 75.0099L124.296 75.5433L128.027 74.9831L131.566 73.3591L134.83 70.7631L137.724 67.2874L140.134 63.0427L141.977 58.117L143.154 52.6193L143.568 46.6268L143.124 40.6452L141.865 35.1346L139.896 30.1773L137.329 25.8742L134.268 22.344L130.839 19.6966L127.157 18.0389L123.346 17.4619L119.587 18.0646L116.035 19.7798L112.767 22.5123L109.885 26.1424L107.479 30.5633L105.648 35.6443L104.485 41.2657L104.077 47.2998ZM150.961 19.0761H158.141V29.3114L163.565 21.8719L166.218 19.4908L168.973 18.1102L171.741 17.7291L174.438 18.3833L177.023 20.1063L179.432 23.0002L183.211 30.3545L185.605 24.4966L186.918 22.3727L188.505 20.5933L190.319 19.1741L192.304 18.1547L194.405 17.5312L196.557 17.3382L198.704 17.5728L200.774 18.2576L202.722 19.375L204.493 20.9327L206.044 22.9289L207.332 25.3843L208.324 28.3355L208.969 31.8331L209.207 36.0194V73.9281H200.288L200.439 39.9742L199.371 34.8882L197.361 31.3244L194.723 29.4727L191.898 29.246L189.194 30.3891L186.839 32.6981L185.072 36.0719L184.238 40.2157V73.6956H175.624V42.9353L175.013 37.3298L173.216 33.0761L170.572 30.6276L167.583 30.0348L164.661 31.1274L162.135 33.7441L160.363 37.7504L159.742 42.6711V73.6966H150.816L150.961 19.0761ZM217.384 0.234554H225.994V27.713L230.111 22.3599L231.377 21.1425L232.686 20.2103L233.991 19.5304L235.238 19.0692L236.378 18.7881L238.048 18.6159L241.349 19.0791L244.687 20.4339L247.937 22.6944L250.932 25.8514L253.512 29.9072L255.542 34.8486L256.876 40.7174L257.362 47.5413L256.948 52.9509L255.783 57.9785L253.961 62.5458L251.599 66.5313L248.799 69.8269L245.695 72.2972L242.408 73.847L239.007 74.3844L237.299 74.2666L235.759 73.9281L234.398 73.4155L233.173 72.7504L232.047 71.9795L229.956 70.1763L226.314 66.7084V73.9281H217.383L217.384 0.234554ZM225.824 46.3843L226.09 50.064L226.848 53.3626L228.01 56.2346L229.5 58.6257L231.223 60.5298L233.119 61.9104L235.109 62.7665L237.134 63.0585L239.154 62.7804L241.155 61.9589L243.068 60.6249L244.825 58.7751L246.348 56.4326L247.549 53.5932L248.332 50.3074L248.612 46.6219L248.34 42.9472L247.586 39.6228L246.426 36.7261L244.947 34.2875L243.222 32.3487L241.335 30.9196L239.338 30.0319L237.303 29.7181L235.263 30.014L233.259 30.8662L231.347 32.2487L229.594 34.1361L228.077 36.5281L226.88 39.3942L226.1 42.7057L225.824 46.3843ZM325.617 21.7997L326.98 20.4715L328.337 19.5214L329.625 18.9395L330.786 18.6763L331.339 18.6911V30.7296L329.762 30.7791L327.787 31.1809L325.796 32.0201L323.893 33.4651L322.261 35.6612L321.145 38.6896L320.774 42.2455V74.1637H311.542L311.983 19.0751H319.971V31.1591L324.293 23.5396L325.617 21.7997ZM10.6885 41.7516L18.7393 41.8288L21.123 42.7997L22.9626 44.9454L24.0597 47.7699L24.4779 50.8597L24.2688 53.9633L23.4393 56.8413L21.926 59.1977L19.8011 60.4853H10.7226L10.6885 41.7516ZM10.6947 12.9806L17.8356 13.047L19.9496 13.9129L21.5909 15.8309L22.5689 18.3487L22.9408 21.0881L22.7528 23.8384L22.0173 26.4007L20.6579 28.5147L18.755 29.6686H10.7226L10.6947 12.9806ZM0.0251992 73.463H21.5998L24.3165 72.98L26.7458 71.6479L28.9593 69.5775L30.903 66.8579L32.5069 63.6572L33.7117 60.1142L34.465 56.3989L34.7306 52.6144L34.5855 49.0496L34.1762 45.9726L33.5292 43.4034L32.6704 41.2786L31.5977 39.5229L30.3064 38.071L28.7734 36.8893L22.8604 33.8243L27.907 30.6217L28.821 29.6894L29.673 28.4246L30.4385 26.8203L31.0815 24.8994L31.5759 22.6587L31.8912 20.1222L32.005 17.3748L31.8238 15.0154L31.2599 12.273L30.2805 9.3505L28.8912 6.50517L27.0857 3.96268L24.8552 1.9081L22.1705 0.5275L18.8864 0H0L0.0251992 73.463ZM358.304 103L354.152 102.687L350.433 101.74L347.19 100.205L344.453 98.114L342.223 95.5022L340.497 92.3748L339.271 88.6981L339.029 87.2344H349.245L349.386 87.6619L350.296 89.3612L351.367 90.6874L352.525 91.6563L353.704 92.3332L354.878 92.7568L355.999 92.9904L357.067 93.0537L358.261 92.9379L359.717 92.5668L361.325 91.8958L362.991 90.8477L364.6 89.3385L366.01 87.2433L367.004 84.4989L367.35 81.3557V64.0739L363.232 69.4439L361.965 70.6582L360.655 71.5935L359.354 72.2685L358.102 72.7326L356.964 73.0048L355.302 73.175L351.989 72.7187L348.65 71.3639L345.401 69.1044L342.408 65.9444L339.826 61.8966L337.798 56.9522L336.466 51.0893L335.984 44.2496L336.395 38.8479L337.561 33.8184L339.377 29.253L341.743 25.2616L344.539 21.9729L347.646 19.5007L350.935 17.9479L354.34 17.4016L356.042 17.5253L357.584 17.8647L358.943 18.3823L360.167 19.0395L361.292 19.8203C363.277 21.4484 365.139 23.2674 367.034 25.0449V17.8627H375.967L376 79.9939L375.634 85.1026L374.626 89.5314L373.031 93.4011L370.911 96.6868L368.317 99.36L365.311 101.337L361.959 102.576L358.304 103ZM367.521 45.4105L367.25 41.7358L366.495 38.4323L365.327 35.5691L363.844 33.1711L362.115 31.2759L360.227 29.8913L358.236 29.0362L356.214 28.7374L354.185 29.0234L352.187 29.8428L350.275 31.1819L348.521 33.0167L346.998 35.3682L345.796 38.2027L345.011 41.4963L344.737 45.1661L345.002 48.8536L345.756 52.173L346.914 55.0767L348.397 57.5084L350.116 59.4531L352.012 60.8792L354.006 61.766L356.046 62.0738L358.079 61.7818L360.085 60.9277L361.997 59.553L363.751 57.6608L365.267 55.2756L366.465 52.4075L367.243 49.099L367.521 45.4105ZM303.031 36.6597L302.038 33.5244L300.541 30.0378L298.761 26.9223L296.715 24.1819L294.455 21.8521L292.011 19.9826L289.438 18.602L286.769 17.7519L284.085 17.459L280.3 18.0666L276.747 19.7817L273.479 22.5142L270.598 26.1444L268.192 30.5653L266.361 35.6463L265.197 41.2677L264.789 47.3008L265.239 53.2438L266.504 58.6307L268.477 63.4326L271.056 67.5576L274.118 70.9284L277.552 73.4432L281.222 75.0109L285.028 75.5463L287.988 75.2038L290.859 74.2023L293.574 72.5861L296.093 70.3821L298.357 67.6506L300.324 64.4203L301.946 60.7456L302.192 59.9261H293.162C292.519 60.8693 291.786 61.5888 291.032 62.3093L289.951 63.1208L288.767 63.7859L287.493 64.2728L286.134 64.5727L284.669 64.6766L282.451 64.4193L280.409 63.677L278.575 62.527L276.968 61.0286L275.581 59.2809L274.42 57.3421L273.476 55.2895L271.553 49.7305H303.813V49.6147H304.185C304.296 48.0084 304.285 46.4269 304.255 44.8414L304.15 43.1233L303.976 41.4627L303.735 39.8376L303.42 38.2462L303.031 36.6597ZM284.372 28.7938L286.277 28.9996L288.045 29.5895L289.665 30.5118L291.13 31.7222L292.427 33.18L293.561 34.8071L294.527 36.5736L296.937 42.1099H271.95L274.411 36.5865L275.375 34.8437L276.49 33.2295L277.768 31.7717L279.198 30.5514L280.785 29.6093L282.513 29.0065L284.372 28.7938Z" fill="white"/>
</svg>
