<svg width="60" height="36" viewBox="0 0 60 36" fill="none" xmlns="http://www.w3.org/2000/svg">
 <g clip-path="url(#clip0_131_16)">
  <rect width="60" height="36" fill="#282130"/>
  <path fill-rule="evenodd" clip-rule="evenodd" d="M14.5294 6.40679C13.5882 1.7695 13.2941 1.58645 11.1765 1.46442V0.671199H20.6471V1.46442C18.0588 1.70849 18 1.70849 18.9412 7.13899L22.0588 24.2848L25.7647 5.85764C26.5294 2.07459 26.2353 1.70849 23.8235 1.52544L23.0588 1.46442V0.671199H29.8235V1.46442C27.7647 1.64747 27.7647 2.19662 26.9412 6.22374L20.8824 36H20.2941L15.1176 9.3356L9.64706 36H9.05882L2.88235 4.75933C2.35294 2.01357 2.23529 1.58645 0 1.46442V0.671199H9.23529V1.46442C6.88235 1.70849 6.82353 1.95255 7.76471 7.13899L10.9412 24.1627L14.5294 6.40679ZM39.1765 35.817C35.8235 35.817 33.8235 32.5831 33.0588 32.5831C32.2353 32.5831 31.2941 34.4136 31 35.2068H30.2941V23.7356H31C33.0588 30.0203 36.3529 34.9627 39.0588 34.9627C40.6471 34.9627 41.6471 33.4373 41.6471 31.1797C41.6471 22.8814 30.4706 17.5119 30.4706 7.32205C30.4706 3.17289 33.2941 -0.0610046 36.3529 -0.0610046C39.1176 -0.0610046 40.6471 2.25764 41.5294 2.25764C42 2.25764 42.3529 1.89154 42.9412 0.427131H43.4706V10.678H42.7647C41.4706 5.7356 38.8235 0.732216 36.2353 0.732216C34.6471 0.732216 33.4706 2.25764 33.4706 4.51527C33.4706 12.5085 44.6471 17.5729 44.6471 28.1288C44.7059 32.522 42.1176 35.817 39.1765 35.817ZM50.7647 35.817C47.3529 35.817 46 33.6203 46 31.4848C46 29.3492 47.2353 27.1526 49.1176 27.1526C51.1176 27.1526 51.9412 29.2271 51 30.6915C50.2353 31.9729 48.1765 32.0949 48.1765 33.0712C48.1765 34.5966 49.4118 34.9627 50.4118 34.9627C53.3529 34.9627 53.1765 33.0712 53.1765 26.6034V3.72205C53.1765 1.89154 52.7647 1.46442 50.8824 1.46442H50.1765V0.671199H60V1.46442H59.1765C58.1765 1.46442 57.7647 1.89154 57.7647 3.78306V26.1763C57.7647 32.461 53.4118 35.817 50.7647 35.817Z" fill="white"/>
 </g>
 <defs>
  <clipPath id="clip0_131_16">
   <rect width="60" height="36" fill="white"/>
  </clipPath>
 </defs>
</svg>
