<svg width="778" height="118" viewBox="0 0 778 118" fill="none" xmlns="http://www.w3.org/2000/svg">
    <path d="M26.1953 84.6758L42.7773 28.6016H62.4648L36.9766 101.492C36.4297 103.094 35.6875 104.812 34.75 106.648C33.8516 108.484 32.6211 110.242 31.0586 111.922C29.5352 113.602 27.582 114.969 25.1992 116.023C22.8164 117.078 19.8867 117.605 16.4102 117.605C14.6523 117.605 13.2852 117.508 12.3086 117.312C11.3711 117.156 10.1211 116.883 8.55859 116.492L8.5 103.191C9.00781 103.191 9.45703 103.191 9.84766 103.191C10.2773 103.23 10.707 103.25 11.1367 103.25C13.3242 103.25 15.082 103.016 16.4102 102.547C17.7773 102.078 18.832 101.375 19.5742 100.438C20.3555 99.5391 20.9805 98.3867 21.4492 96.9805L26.1953 84.6758ZM20.6289 28.6016L33.7539 73.7188L35.9805 93.1133L23.6172 93.7578L0.941406 28.6016H20.6289ZM101.02 76.8828V49.6953C101.02 47.7812 100.727 46.1406 100.141 44.7734C99.5547 43.4062 98.6367 42.332 97.3867 41.5508C96.1367 40.7695 94.5156 40.3789 92.5234 40.3789C90.8438 40.3789 89.3789 40.6719 88.1289 41.2578C86.918 41.8438 85.9805 42.6836 85.3164 43.7773C84.6914 44.8711 84.3789 46.2188 84.3789 47.8203H66.0977C66.0977 44.9688 66.7422 42.3125 68.0312 39.8516C69.3203 37.3906 71.1562 35.2227 73.5391 33.3477C75.9609 31.4727 78.8516 30.0273 82.2109 29.0117C85.5703 27.957 89.3398 27.4297 93.5195 27.4297C98.4805 27.4297 102.895 28.2695 106.762 29.9492C110.668 31.5898 113.754 34.0703 116.02 37.3906C118.285 40.6719 119.418 44.8125 119.418 49.8125V76.3555C119.418 80.1836 119.633 83.1914 120.062 85.3789C120.531 87.5273 121.195 89.4023 122.055 91.0039V92H103.598C102.738 90.1641 102.094 87.8984 101.664 85.2031C101.234 82.4688 101.02 79.6953 101.02 76.8828ZM103.305 53.3281L103.422 63.4062H94.3398C92.3086 63.4062 90.5508 63.6602 89.0664 64.168C87.6211 64.6758 86.4492 65.3789 85.5508 66.2773C84.6523 67.1367 83.9883 68.1523 83.5586 69.3242C83.168 70.457 82.9727 71.707 82.9727 73.0742C82.9727 74.3633 83.2852 75.5352 83.9102 76.5898C84.5352 77.6055 85.3945 78.4062 86.4883 78.9922C87.582 79.5781 88.8516 79.8711 90.2969 79.8711C92.6797 79.8711 94.7109 79.4023 96.3906 78.4648C98.1094 77.5273 99.4375 76.3945 100.375 75.0664C101.312 73.6992 101.781 72.4297 101.781 71.2578L106.176 78.875C105.473 80.4375 104.613 82.0586 103.598 83.7383C102.582 85.3789 101.293 86.9219 99.7305 88.3672C98.168 89.7734 96.2734 90.9258 94.0469 91.8242C91.8594 92.7227 89.2227 93.1719 86.1367 93.1719C82.1523 93.1719 78.5391 92.3711 75.2969 90.7695C72.0547 89.1289 69.457 86.8828 67.5039 84.0312C65.5898 81.1797 64.6328 77.8984 64.6328 74.1875C64.6328 70.8672 65.2383 67.918 66.4492 65.3398C67.6602 62.7617 69.4766 60.5742 71.8984 58.7773C74.3594 56.9805 77.4453 55.6328 81.1562 54.7344C84.8672 53.7969 89.2031 53.3281 94.1641 53.3281H103.305ZM149.301 2V92H131.02V2H149.301ZM146.898 58.0742L142.328 58.1914C142.328 53.7383 142.875 49.6562 143.969 45.9453C145.102 42.1953 146.703 38.9336 148.773 36.1602C150.844 33.3867 153.324 31.2383 156.215 29.7148C159.145 28.1914 162.367 27.4297 165.883 27.4297C169.008 27.4297 171.859 27.8789 174.438 28.7773C177.016 29.6758 179.242 31.1016 181.117 33.0547C182.992 35.0078 184.438 37.5664 185.453 40.7305C186.469 43.8945 186.977 47.7422 186.977 52.2734V92H168.578V52.1562C168.578 49.4609 168.188 47.3516 167.406 45.8281C166.664 44.3047 165.57 43.2305 164.125 42.6055C162.719 41.9805 161 41.668 158.969 41.668C156.586 41.668 154.613 42.0977 153.051 42.957C151.488 43.7773 150.258 44.9297 149.359 46.4141C148.461 47.8984 147.816 49.6367 147.426 51.6289C147.074 53.6211 146.898 55.7695 146.898 58.0742ZM196.293 60.9453V59.7148C196.293 55.0664 196.957 50.7891 198.285 46.8828C199.613 42.9375 201.566 39.5195 204.145 36.6289C206.723 33.7383 209.887 31.4922 213.637 29.8906C217.387 28.25 221.684 27.4297 226.527 27.4297C231.449 27.4297 235.785 28.25 239.535 29.8906C243.324 31.4922 246.508 33.7383 249.086 36.6289C251.664 39.5195 253.617 42.9375 254.945 46.8828C256.273 50.7891 256.938 55.0664 256.938 59.7148V60.9453C256.938 65.5547 256.273 69.832 254.945 73.7773C253.617 77.6836 251.664 81.1016 249.086 84.0312C246.508 86.9219 243.344 89.168 239.594 90.7695C235.844 92.3711 231.527 93.1719 226.645 93.1719C221.801 93.1719 217.484 92.3711 213.695 90.7695C209.906 89.168 206.723 86.9219 204.145 84.0312C201.566 81.1016 199.613 77.6836 198.285 73.7773C196.957 69.832 196.293 65.5547 196.293 60.9453ZM214.633 59.7148V60.9453C214.633 63.4453 214.828 65.7891 215.219 67.9766C215.648 70.1641 216.332 72.0781 217.27 73.7188C218.207 75.3594 219.438 76.6484 220.961 77.5859C222.523 78.4844 224.418 78.9336 226.645 78.9336C228.871 78.9336 230.746 78.4844 232.27 77.5859C233.793 76.6484 235.023 75.3594 235.961 73.7188C236.898 72.0781 237.562 70.1641 237.953 67.9766C238.383 65.7891 238.598 63.4453 238.598 60.9453V59.7148C238.598 57.2539 238.383 54.9492 237.953 52.8008C237.562 50.6133 236.898 48.6797 235.961 47C235.023 45.3203 233.773 44.0117 232.211 43.0742C230.688 42.1367 228.793 41.668 226.527 41.668C224.34 41.668 222.484 42.1367 220.961 43.0742C219.438 44.0117 218.207 45.3203 217.27 47C216.332 48.6797 215.648 50.6133 215.219 52.8008C214.828 54.9492 214.633 57.2539 214.633 59.7148ZM263.91 60.9453V59.7148C263.91 55.0664 264.574 50.7891 265.902 46.8828C267.23 42.9375 269.184 39.5195 271.762 36.6289C274.34 33.7383 277.504 31.4922 281.254 29.8906C285.004 28.25 289.301 27.4297 294.145 27.4297C299.066 27.4297 303.402 28.25 307.152 29.8906C310.941 31.4922 314.125 33.7383 316.703 36.6289C319.281 39.5195 321.234 42.9375 322.562 46.8828C323.891 50.7891 324.555 55.0664 324.555 59.7148V60.9453C324.555 65.5547 323.891 69.832 322.562 73.7773C321.234 77.6836 319.281 81.1016 316.703 84.0312C314.125 86.9219 310.961 89.168 307.211 90.7695C303.461 92.3711 299.145 93.1719 294.262 93.1719C289.418 93.1719 285.102 92.3711 281.312 90.7695C277.523 89.168 274.34 86.9219 271.762 84.0312C269.184 81.1016 267.23 77.6836 265.902 73.7773C264.574 69.832 263.91 65.5547 263.91 60.9453ZM282.25 59.7148V60.9453C282.25 63.4453 282.445 65.7891 282.836 67.9766C283.266 70.1641 283.949 72.0781 284.887 73.7188C285.824 75.3594 287.055 76.6484 288.578 77.5859C290.141 78.4844 292.035 78.9336 294.262 78.9336C296.488 78.9336 298.363 78.4844 299.887 77.5859C301.41 76.6484 302.641 75.3594 303.578 73.7188C304.516 72.0781 305.18 70.1641 305.57 67.9766C306 65.7891 306.215 63.4453 306.215 60.9453V59.7148C306.215 57.2539 306 54.9492 305.57 52.8008C305.18 50.6133 304.516 48.6797 303.578 47C302.641 45.3203 301.391 44.0117 299.828 43.0742C298.305 42.1367 296.41 41.668 294.145 41.668C291.957 41.668 290.102 42.1367 288.578 43.0742C287.055 44.0117 285.824 45.3203 284.887 47C283.949 48.6797 283.266 50.6133 282.836 52.8008C282.445 54.9492 282.25 57.2539 282.25 59.7148ZM336.35 63.56L346.07 6.31999H365.99L351.47 63.56H336.35ZM338.63 93.56C335.27 93.56 332.91 92.72 331.55 91.04C330.19 89.28 329.51 87.36 329.51 85.28C329.51 83.36 329.91 81.52 330.71 79.76C331.51 77.92 332.79 76.44 334.55 75.32C336.31 74.2 338.63 73.64 341.51 73.64C344.15 73.64 346.27 74.4 347.87 75.92C349.47 77.36 350.27 79.44 350.27 82.16C350.27 85.44 349.19 88.16 347.03 90.32C344.95 92.48 342.15 93.56 338.63 93.56Z" fill="#7C5AFC"/>
    <path d="M407.828 92H389.43V26.3164C389.43 20.8086 390.562 16.1602 392.828 12.3711C395.133 8.58203 398.434 5.71094 402.73 3.75781C407.027 1.76562 412.203 0.769531 418.258 0.769531C421.734 0.769531 425.074 1.08203 428.277 1.70703C431.52 2.33203 434.859 3.15234 438.297 4.16797L435.719 18.7578C433.492 18.0938 431.129 17.4883 428.629 16.9414C426.129 16.3945 423.062 16.1211 419.43 16.1211C415.68 16.1211 412.809 17 410.816 18.7578C408.824 20.4766 407.828 22.9961 407.828 26.3164V92ZM420.309 28.6016V41.4336H380.113V28.6016H420.309ZM446.734 28.6016V92H428.395V28.6016H446.734ZM477.789 42.1367V92H459.449V28.6016H476.676L477.789 42.1367ZM475.387 58.0742L470.816 58.1914C470.816 53.4258 471.402 49.1484 472.574 45.3594C473.746 41.5703 475.406 38.3477 477.555 35.6914C479.742 32.9961 482.34 30.9453 485.348 29.5391C488.395 28.1328 491.754 27.4297 495.426 27.4297C498.395 27.4297 501.109 27.8594 503.57 28.7188C506.031 29.5781 508.141 30.9648 509.898 32.8789C511.695 34.7539 513.062 37.2539 514 40.3789C514.938 43.4648 515.406 47.2734 515.406 51.8047V92H497.008V51.7461C497.008 49.0898 496.637 47.0391 495.895 45.5938C495.152 44.1484 494.059 43.1328 492.613 42.5469C491.207 41.9609 489.488 41.668 487.457 41.668C485.309 41.668 483.473 42.0977 481.949 42.957C480.426 43.7773 479.176 44.9297 478.199 46.4141C477.223 47.8984 476.5 49.6367 476.031 51.6289C475.602 53.6211 475.387 55.7695 475.387 58.0742ZM560.934 76.8828V49.6953C560.934 47.7812 560.641 46.1406 560.055 44.7734C559.469 43.4062 558.551 42.332 557.301 41.5508C556.051 40.7695 554.43 40.3789 552.438 40.3789C550.758 40.3789 549.293 40.6719 548.043 41.2578C546.832 41.8438 545.895 42.6836 545.23 43.7773C544.605 44.8711 544.293 46.2188 544.293 47.8203H526.012C526.012 44.9688 526.656 42.3125 527.945 39.8516C529.234 37.3906 531.07 35.2227 533.453 33.3477C535.875 31.4727 538.766 30.0273 542.125 29.0117C545.484 27.957 549.254 27.4297 553.434 27.4297C558.395 27.4297 562.809 28.2695 566.676 29.9492C570.582 31.5898 573.668 34.0703 575.934 37.3906C578.199 40.6719 579.332 44.8125 579.332 49.8125V76.3555C579.332 80.1836 579.547 83.1914 579.977 85.3789C580.445 87.5273 581.109 89.4023 581.969 91.0039V92H563.512C562.652 90.1641 562.008 87.8984 561.578 85.2031C561.148 82.4688 560.934 79.6953 560.934 76.8828ZM563.219 53.3281L563.336 63.4062H554.254C552.223 63.4062 550.465 63.6602 548.98 64.168C547.535 64.6758 546.363 65.3789 545.465 66.2773C544.566 67.1367 543.902 68.1523 543.473 69.3242C543.082 70.457 542.887 71.707 542.887 73.0742C542.887 74.3633 543.199 75.5352 543.824 76.5898C544.449 77.6055 545.309 78.4062 546.402 78.9922C547.496 79.5781 548.766 79.8711 550.211 79.8711C552.594 79.8711 554.625 79.4023 556.305 78.4648C558.023 77.5273 559.352 76.3945 560.289 75.0664C561.227 73.6992 561.695 72.4297 561.695 71.2578L566.09 78.875C565.387 80.4375 564.527 82.0586 563.512 83.7383C562.496 85.3789 561.207 86.9219 559.645 88.3672C558.082 89.7734 556.188 90.9258 553.961 91.8242C551.773 92.7227 549.137 93.1719 546.051 93.1719C542.066 93.1719 538.453 92.3711 535.211 90.7695C531.969 89.1289 529.371 86.8828 527.418 84.0312C525.504 81.1797 524.547 77.8984 524.547 74.1875C524.547 70.8672 525.152 67.918 526.363 65.3398C527.574 62.7617 529.391 60.5742 531.812 58.7773C534.273 56.9805 537.359 55.6328 541.07 54.7344C544.781 53.7969 549.117 53.3281 554.078 53.3281H563.219ZM609.273 42.1367V92H590.934V28.6016H608.16L609.273 42.1367ZM606.871 58.0742L602.301 58.1914C602.301 53.4258 602.887 49.1484 604.059 45.3594C605.23 41.5703 606.891 38.3477 609.039 35.6914C611.227 32.9961 613.824 30.9453 616.832 29.5391C619.879 28.1328 623.238 27.4297 626.91 27.4297C629.879 27.4297 632.594 27.8594 635.055 28.7188C637.516 29.5781 639.625 30.9648 641.383 32.8789C643.18 34.7539 644.547 37.2539 645.484 40.3789C646.422 43.4648 646.891 47.2734 646.891 51.8047V92H628.492V51.7461C628.492 49.0898 628.121 47.0391 627.379 45.5938C626.637 44.1484 625.543 43.1328 624.098 42.5469C622.691 41.9609 620.973 41.668 618.941 41.668C616.793 41.668 614.957 42.0977 613.434 42.957C611.91 43.7773 610.66 44.9297 609.684 46.4141C608.707 47.8984 607.984 49.6367 607.516 51.6289C607.086 53.6211 606.871 55.7695 606.871 58.0742ZM685.328 78.9336C687.281 78.9336 688.98 78.5625 690.426 77.8203C691.871 77.0781 692.984 76.043 693.766 74.7148C694.586 73.3477 694.996 71.707 694.996 69.793H712.223C712.223 74.4023 711.031 78.4648 708.648 81.9805C706.305 85.4961 703.141 88.25 699.156 90.2422C695.172 92.1953 690.68 93.1719 685.68 93.1719C680.758 93.1719 676.461 92.3711 672.789 90.7695C669.117 89.1289 666.051 86.8438 663.59 83.9141C661.129 80.9844 659.273 77.5859 658.023 73.7188C656.812 69.8125 656.207 65.5938 656.207 61.0625V59.5391C656.207 55.0469 656.812 50.8477 658.023 46.9414C659.273 43.0352 661.129 39.6172 663.59 36.6875C666.051 33.7578 669.098 31.4922 672.73 29.8906C676.402 28.25 680.699 27.4297 685.621 27.4297C690.816 27.4297 695.406 28.4258 699.391 30.418C703.414 32.4102 706.559 35.2812 708.824 39.0312C711.09 42.7422 712.223 47.2148 712.223 52.4492H694.996C694.996 50.418 694.625 48.6016 693.883 47C693.18 45.3594 692.086 44.0703 690.602 43.1328C689.156 42.1562 687.359 41.668 685.211 41.668C682.984 41.668 681.148 42.1562 679.703 43.1328C678.297 44.0703 677.223 45.3789 676.48 47.0586C675.738 48.7383 675.23 50.6523 674.957 52.8008C674.684 54.9102 674.547 57.1562 674.547 59.5391V61.0625C674.547 63.4844 674.684 65.7891 674.957 67.9766C675.23 70.125 675.738 72.0195 676.48 73.6602C677.262 75.3008 678.355 76.5898 679.762 77.5273C681.168 78.4648 683.023 78.9336 685.328 78.9336ZM751.188 93.1719C746.148 93.1719 741.637 92.3711 737.652 90.7695C733.668 89.168 730.289 86.9609 727.516 84.1484C724.781 81.2969 722.691 78.0156 721.246 74.3047C719.801 70.5938 719.078 66.6289 719.078 62.4102V60.1836C719.078 55.457 719.742 51.1016 721.07 47.1172C722.398 43.1328 724.332 39.6758 726.871 36.7461C729.449 33.7773 732.613 31.4922 736.363 29.8906C740.113 28.25 744.391 27.4297 749.195 27.4297C753.688 27.4297 757.691 28.1719 761.207 29.6562C764.723 31.1016 767.691 33.1914 770.113 35.9258C772.535 38.6211 774.371 41.8828 775.621 45.7109C776.91 49.5 777.555 53.7578 777.555 58.4844V65.9844H726.461V54.207H759.625V52.8008C759.625 50.5742 759.215 48.6211 758.395 46.9414C757.613 45.2617 756.441 43.9727 754.879 43.0742C753.355 42.1367 751.422 41.668 749.078 41.668C746.852 41.668 744.996 42.1367 743.512 43.0742C742.027 44.0117 740.836 45.3398 739.938 47.0586C739.078 48.7383 738.453 50.7109 738.062 52.9766C737.672 55.2031 737.477 57.6055 737.477 60.1836V62.4102C737.477 64.8711 737.809 67.1172 738.473 69.1484C739.137 71.1797 740.113 72.918 741.402 74.3633C742.691 75.8086 744.254 76.9414 746.09 77.7617C747.926 78.582 750.016 78.9922 752.359 78.9922C755.25 78.9922 758.004 78.4453 760.621 77.3516C763.238 76.2188 765.504 74.4609 767.418 72.0781L775.973 81.8633C774.684 83.7383 772.867 85.5547 770.523 87.3125C768.219 89.0312 765.445 90.4375 762.203 91.5312C758.961 92.625 755.289 93.1719 751.188 93.1719Z" fill="#F5F7F8"/>
</svg>
